<?xml version="1.0" encoding="UTF-8" standalone="no"?>
<svg width="198px" height="100px" viewBox="0 0 198 100" version="1.1" xmlns="http://www.w3.org/2000/svg" xmlns:xlink="http://www.w3.org/1999/xlink">
    <!-- Generator: Sketch 3.6.1 (26313) - http://www.bohemiancoding.com/sketch -->
    <title>WGTravel_Logo</title>
    <desc>Created with Sketch.</desc>
    <defs></defs>
    <g id="Page-1" stroke="none" stroke-width="1" fill="none" fill-rule="evenodd">
        <g id="WGTravel_Logo" fill="#FFFFFF">
            <g id="Layer_1">
                <path d="M40.5037344,0.0819672131 C18.5676349,0.0819672131 0.739419087,17.8688525 0.739419087,39.7540984 C0.739419087,72.704918 40.5037344,99.6721311 40.5037344,99.6721311 C40.5037344,99.6721311 80.2680498,70.7377049 80.2680498,39.7540984 C80.2680498,17.8688525 62.439834,0.0819672131 40.5037344,0.0819672131 L40.5037344,0.0819672131 Z M41.9004149,63.0327869 C37.5460581,66.6393443 28.180083,73.7704918 28.180083,73.7704918 L34.1775934,58.7704918 C33.3560166,57.9508197 32.3701245,56.9672131 31.219917,55.7377049 C26.6190871,50.7377049 22.1825726,45.0819672 22.1825726,36.4754098 C22.1825726,26.3934426 30.3983402,18.1967213 40.5037344,18.1967213 C50.6091286,18.1967213 58.8248963,26.3934426 58.8248963,36.4754098 C58.8248963,48.3606557 46.0082988,59.5901639 41.9004149,63.0327869 L41.9004149,63.0327869 Z M129.809129,62.4590164 L123.811618,28.9344262 L117.814108,62.4590164 L104.586722,62.4590164 L89.7983402,9.59016393 L102.697095,9.59016393 L110.66639,43.852459 L116.253112,9.59016393 L131.123651,9.59016393 L136.710373,43.852459 L144.679668,9.59016393 L157.742739,9.59016393 L143.036515,62.4590164 L129.809129,62.4590164 L129.809129,62.4590164 L129.809129,62.4590164 Z M176.885477,62.6229508 L185.840664,62.6229508 C191.345228,62.6229508 194.549378,61.147541 197.342739,59.0983607 L197.342739,31.2295082 L179.514523,31.2295082 L179.514523,41.147541 L186.087137,41.147541 L186.087137,51.147541 C185.019087,51.3114754 183.86888,51.3934426 182.636515,51.3934426 L178.2,51.3934426 C171.791701,51.3934426 170.230705,46.9672131 170.230705,42.1311475 L170.230705,29.0163934 C170.230705,24.0163934 172.448963,20.4918033 178.528631,20.4918033 L196.521162,20.4918033 L196.521162,9.18032787 L177.953527,9.18032787 C165.958506,9.18032787 159.057261,17.0491803 159.057261,28.6065574 L159.057261,43.7704918 C158.975104,54.8360656 166.615768,62.6229508 176.885477,62.6229508 L176.885477,62.6229508 L176.885477,62.6229508 Z M185.758506,71.9672131 L185.758506,94.8360656 L197.260581,94.8360656 L197.260581,90.3278689 L190.687967,90.3278689 L190.687967,71.9672131 L185.758506,71.9672131 L185.758506,71.9672131 Z M110.912863,71.9672131 L96.2887967,71.9672131 L96.2887967,76.4754098 L101.1361,76.4754098 L101.1361,94.8360656 L106.06556,94.8360656 L106.06556,76.4754098 L110.912863,76.4754098 L110.912863,71.9672131 L110.912863,71.9672131 Z M182.965145,76.3934426 L182.965145,71.9672131 L168.341079,71.9672131 L168.341079,94.8360656 L182.965145,94.8360656 L182.965145,90.3278689 L173.270539,90.3278689 L173.270539,85.3278689 L181.814938,85.3278689 L181.814938,80.8196721 L173.270539,80.8196721 L173.270539,76.3114754 L182.965145,76.3114754 L182.965145,76.3934426 Z M130.302075,94.9180328 L124.551037,94.9180328 L121.511203,86.3934426 L118.307054,86.3934426 L118.307054,94.9180328 L113.377593,94.9180328 L113.377593,72.0491803 L122.086307,72.0491803 C123.40083,72.0491803 124.633195,71.9672131 125.783402,72.295082 C127.590871,72.704918 129.06971,74.2622951 129.06971,76.3934426 L129.06971,81.557377 C129.06971,83.3606557 127.919502,84.8360656 126.194191,85.4918033 L130.302075,94.9180328 L130.302075,94.9180328 Z M124.140249,77.9508197 C124.140249,76.8852459 123.318672,76.4754098 122.414938,76.4754098 L118.307054,76.4754098 L118.307054,81.9672131 L122.414938,81.9672131 C123.40083,81.9672131 124.140249,81.4754098 124.140249,80.2459016 L124.140249,77.9508197 L124.140249,77.9508197 Z M149.609129,94.9180328 L144.351037,94.9180328 L143.282988,90.3278689 L137.449793,90.3278689 L136.381743,94.9180328 L131.123651,94.9180328 L137.449793,72.0491803 L143.20083,72.0491803 L149.609129,94.9180328 L149.609129,94.9180328 Z M142.461411,86.3934426 L140.489627,77.704918 L138.517842,86.3934426 L142.461411,86.3934426 L142.461411,86.3934426 Z M161.357676,71.9672131 L157.414108,89.1803279 L153.470539,71.9672131 L148.212448,71.9672131 L154.538589,94.8360656 L160.289627,94.8360656 L166.615768,71.9672131 L161.357676,71.9672131 L161.357676,71.9672131 Z" id="Shape"></path>
            </g>
        </g>
    </g>
</svg>