<?xml version="1.0" encoding="utf-8"?>
<!-- Generator: Adobe Illustrator 18.0.0, SVG Export Plug-In . SVG Version: 6.00 Build 0)  -->
<!DOCTYPE svg PUBLIC "-//W3C//DTD SVG 1.1//EN" "http://www.w3.org/Graphics/SVG/1.1/DTD/svg11.dtd">
<svg width="16px" height="15px" version="1.1" id="Layer_1" xmlns="http://www.w3.org/2000/svg" xmlns:xlink="http://www.w3.org/1999/xlink" x="0px" y="0px"
	 viewBox="0 0 16 15" enable-background="new 0 0 16 15" xml:space="preserve">
<g>
	<path fill="#FFC000" d="M11.6,10.4l0.5,1.7c1.3-0.1,2.5-0.7,3.3-1.8l0.2-0.3l-0.4-0.1C14.1,9.7,12.7,9.9,11.6,10.4z"/>
	<path fill="#FFC000" d="M10.6,0.2L10.3,0l-0.1,0.3c-0.4,1.4,0.2,2.9,1.1,4l1.1,0C12.5,2.8,11.8,1.2,10.6,0.2z"/>
	<path fill="#FFC000" d="M15.6,5.5c-1.8,0.6-3.1,2.3-3.4,4.2L12.2,10l0.3-0.1c1.9-0.4,3.2-2.3,3.4-4.2L16,5.4L15.6,5.5z"/>
	<path fill="#FFC000" d="M14,1.6l-0.2-0.4l-0.2,0.3c-0.6,0.8-0.9,1.8-1,2.8l1.7,0C14.5,3.5,14.4,2.5,14,1.6z"/>
	<path fill="#FFC000" d="M2.4,1.6L2.1,1.3L2,1.6C1.6,2.5,1.5,3.5,1.7,4.4l1.7,0C3.3,3.4,3,2.4,2.4,1.6z"/>
	<path fill="#FFC000" d="M0.7,9.9L0.3,10l0.2,0.3C1.4,11.4,2.7,12,4,12.1l0.5-1.6C3.4,9.9,2,9.7,0.7,9.9z"/>
	<path fill="#FFC000" d="M5.8,0.3L5.7,0L5.4,0.2c-1.2,1-1.9,2.6-1.8,4.1l1,0C5.6,3.3,6.2,1.8,5.8,0.3z"/>
	<path fill="#FFC000" d="M3.5,9.9L3.8,10L3.7,9.6C3.4,7.8,2.1,6.1,0.4,5.5L0,5.4l0.1,0.4C0.3,7.6,1.6,9.5,3.5,9.9z"/>
	<path fill="#FFC000" d="M10.6,12.2c-0.8,0-1.6,0-2.3,0.2l0,0l0,0c-0.1,0-0.3,0-0.4,0l0,0l0,0c-0.7-0.2-1.5-0.2-2.3-0.2l-2,1.8
		c0.6,0.1,1.3,0.1,1.9,0c0.5-0.1,0.9-0.3,1.3-0.5c-0.3,0.3-0.6,0.6-1,0.9l-0.2,0.2l0.2,0.2c0.1,0.1,0.2,0.2,0.3,0.3L6.1,15l0.1-0.1
		c0.9-0.4,1.1-1.3,1.8-1.8c0.7,0.4,0.9,1.4,1.8,1.8L9.9,15l0.1-0.1c0.1-0.1,0.2-0.2,0.3-0.3l0.2-0.2l-0.2-0.2
		c-0.4-0.3-0.7-0.6-1-0.9c0.4,0.2,0.8,0.5,1.3,0.5c0.7,0.1,1.4,0.2,2,0l-2-1.7C10.6,12.2,10.6,12.2,10.6,12.2z"/>
	<path fill-rule="evenodd" clip-rule="evenodd" fill="#FFC000" d="M3.4,14L3.4,14C3.5,13.9,3.5,13.9,3.4,14L3.4,14z"/>
	<path fill-rule="evenodd" clip-rule="evenodd" fill="#FFC000" d="M12.7,14L12.7,14C12.7,13.9,12.6,13.9,12.7,14L12.7,14z"/>
	<path fill-rule="evenodd" clip-rule="evenodd" fill="#FFC000" d="M8.1,0.8l1.2,4.1L13.4,5L10,7.3l1.4,4.4L8.1,8.8l-3.3,2.9l1.4-4.4
		L2.7,5l4.1-0.1L8.1,0.8"/>
</g>
</svg>
