<?xml version="1.0" encoding="utf-8"?>
<!-- Generator: Adobe Illustrator 18.0.0, SVG Export Plug-In . SVG Version: 6.00 Build 0)  -->
<!DOCTYPE svg PUBLIC "-//W3C//DTD SVG 1.1//EN" "http://www.w3.org/Graphics/SVG/1.1/DTD/svg11.dtd">
<svg width="182px" height="91px" version="1.1" id="Layer_1" xmlns="http://www.w3.org/2000/svg" xmlns:xlink="http://www.w3.org/1999/xlink" x="0px" y="0px"
	 viewBox="0 0 182 91" enable-background="new 0 0 182 91" xml:space="preserve">
<path fill-rule="evenodd" clip-rule="evenodd" fill="#FFFFFF" d="M150.3,74.6l4.7-2.7l-5.4-0.6l-1.1-5.3l-2.2,4.9l-5.4-0.6l4,3.6
	l-2.2,4.9l4.7-2.7l4,3.6L150.3,74.6L150.3,74.6z M129.9,64.5c-2.2-0.2-3.4,1-3.5,3.2c-0.3,3.9,4,4.8,3.8,7.6c-0.1,1-0.5,1.3-1.2,1.3
	c-0.7-0.1-1.1-0.4-1-1.4c0-0.4,0-0.6,0.1-1c-0.8-0.1-1.2-0.1-2.1-0.1c0,0.3,0,0.5-0.1,0.8c-0.1,2.2,0.9,3.5,3,3.7
	c2.1,0.2,3.3-1,3.5-3.2c0.3-3.9-4-4.8-3.8-7.6c0.1-1,0.5-1.3,1.2-1.3c0.7,0.1,1.1,0.5,1,1.4c0,0.2,0,0.3,0,0.6
	c0.8,0.1,1.3,0.1,2.1,0.2c0-0.2,0-0.3,0-0.4C133.1,66,132.1,64.6,129.9,64.5L129.9,64.5z M122,75.9c-1.4-0.1-2.2-0.1-3.6-0.2
	c0.2-3.9,0.4-7.9,0.6-11.8c-0.9,0-1.3-0.1-2.2-0.1c-0.2,4.6-0.4,9.2-0.7,13.8c2.3,0.1,3.5,0.2,5.8,0.3C121.9,77.1,122,76.7,122,75.9
	L122,75.9z M112,77.4c-0.6-4.6-1.1-9.3-1.7-13.9c-1.3,0-2-0.1-3.3-0.1c-0.9,4.6-1.8,9.2-2.6,13.7c0.8,0,1.2,0,2,0.1
	c0.2-1,0.3-1.5,0.5-2.5c1.1,0,1.6,0.1,2.7,0.1c0.1,1,0.2,1.5,0.3,2.5C110.6,77.4,111.1,77.4,112,77.4L112,77.4z M100.5,77.1
	c-0.2-0.5-0.2-1-0.2-1.7c0-0.9,0-1.3,0-2.1c0-1.4-1.4-2.9-1.4-3c0,0,1.5-1.4,1.5-2.8c0-0.4,0-0.7,0-1.1c0-2.1-0.9-3.2-3.3-3.2
	c-1.4,0-2,0-3.4,0c0,4.6,0,9.2-0.1,13.8c0.9,0,1.3,0,2.2,0c0-2.2,0-3.4,0.1-5.6c0.3,0,0.5,0,0.8,0c1,0,1.4,0.5,1.4,1.8
	c0,0.9,0,1.3,0,2.2c0,1.1,0.1,1.3,0.2,1.7C99.2,77.1,99.7,77.1,100.5,77.1L100.5,77.1z M89.3,77c0-0.8,0-1.2,0-2c-1.5,0-2.3,0-3.8,0
	c0-1.6,0-2.4,0-4c1.2,0,1.8,0,3,0c0-0.8,0-1.2,0-2c-1.2,0-1.8,0-3,0c0-1.5,0-2.3,0-3.8c1.5,0,2.3,0,3.8,0c0-0.8,0-1.2,0-2
	c-2.4,0-3.7,0-6.1,0.1c0.1,4.6,0.1,9.2,0.2,13.8C85.7,77,86.9,77,89.3,77L89.3,77z M78.6,77.2c-0.1-4.6-0.2-9.2-0.3-13.8
	c-0.8,0-1.2,0-2,0.1c0.1,3.3,0.1,5,0.2,8.3c-1-3.3-1.5-4.9-2.5-8.2c-1.1,0-1.7,0.1-2.8,0.1c0.2,4.6,0.3,9.2,0.5,13.8
	c0.8,0,1.2,0,2-0.1c-0.1-4-0.2-6-0.3-10c1.2,4,1.8,5.9,3,9.9C77.3,77.2,77.7,77.2,78.6,77.2L78.6,77.2z M67.2,77.6
	c0-0.8-0.1-1.2-0.1-2c-1.5,0.1-2.3,0.1-3.8,0.2c-0.1-1.6-0.1-2.4-0.2-4c1.2-0.1,1.8-0.1,3-0.2c0-0.8-0.1-1.2-0.1-2
	c-1.2,0.1-1.8,0.1-3,0.2c-0.1-1.5-0.1-2.3-0.2-3.8c1.5-0.1,2.3-0.1,3.8-0.2c0-0.8-0.1-1.2-0.1-2c-2.4,0.1-3.7,0.2-6.1,0.3
	c0.3,4.6,0.5,9.2,0.8,13.8C63.6,77.7,64.8,77.7,67.2,77.6L67.2,77.6z M56.5,74.8c-0.1-1.7-0.2-2.6-0.3-4.4c-1.2,0.1-1.9,0.1-3.1,0.2
	c0.1,0.8,0.1,1.2,0.1,2c0.4,0,0.6,0,1-0.1c0.1,1,0.1,1.5,0.2,2.5c0.1,1-0.3,1.4-1,1.4c-0.7,0-1.2-0.3-1.2-1.3
	c-0.2-3-0.3-4.5-0.6-7.4c-0.1-1,0.3-1.4,1.1-1.4c0.7-0.1,1.2,0.3,1.2,1.3c0,0.6,0.1,0.9,0.1,1.5c0.8-0.1,1.3-0.1,2.1-0.1
	c0-0.5-0.1-0.8-0.1-1.3c-0.1-2.2-1.4-3.4-3.6-3.2c-2.2,0.2-3.2,1.5-3.1,3.7c0.2,2.9,0.3,4.3,0.6,7.2c0.2,2.2,1.4,3.4,3.5,3.2
	C55.6,78.4,56.6,77.1,56.5,74.8L56.5,74.8z M36.9,73.9l4-3.6l-5.4,0.6L33.3,66l-1.1,5.3l-5.4,0.5l4.7,2.7l-1.2,5.3l4-3.6l4.7,2.7
	L36.9,73.9L36.9,73.9z M172.2,66.2l-6.7,19.1c-56.5-7.9-90-7.9-149.1-0.1l-6.3-18.7C66.3,59.3,110.9,58.5,172.2,66.2L172.2,66.2z
	 M107.1,72.9c0.5-2.8,0.8-4.2,1.3-6.9c0.3,2.8,0.5,4.2,0.8,7C108.4,72.9,108,72.9,107.1,72.9L107.1,72.9z M97.1,65.2
	c0.8,0,1.1,0.4,1.1,1.4c0,0.5,0,0.8,0,1.4c0,1.1-0.5,1.5-1.3,1.4c-0.3,0-0.5,0-0.9,0c0-1.7,0-2.5,0-4.2
	C96.5,65.2,96.7,65.2,97.1,65.2L97.1,65.2z M136.6,86.8l28.6-0.4l0.2-0.5c-5.2-0.7-19.1-2.2-27.9-3L136.6,86.8L136.6,86.8z
	 M136.4,87.5C146.3,87.5,166,87,166,87l5.6-16.9l10.4-0.4l-7.3,21.2c-13.4,0.8-28.7-1-38.4-2.7L136.4,87.5L136.4,87.5z M44.6,82.9
	c-8.8,0.8-22.7,2.3-27.9,3l0.2,0.5l28.6,0.4L44.6,82.9L44.6,82.9z M16,86.9c0,0,19.6,0.6,29.6,0.5l0.1,0.7c-9.7,1.7-25,3.5-38.4,2.7
	L0,69.6l10.4,0.4L16,86.9L16,86.9z M91.4,49.3c-0.4,0-0.8,0.4-0.8,0.8v8.4c0,0.4,0.3,0.8,0.8,0.8c0.4,0,0.8-0.3,0.8-0.8v-8.4
	C92.2,49.7,91.9,49.3,91.4,49.3L91.4,49.3z M91.5,46.1c-2.5,0-4.2,1.8-4.3,4.1v8.2c0,0.5,0.1,0.9,0.2,1.3c2.7,0,5.4,0,8.1,0
	c0.1-0.3,0.1-0.6,0.1-0.9v-8.6C95.6,47.8,93.4,46.1,91.5,46.1L91.5,46.1z M72.6,58.1L71.8,58h-5.2V38.2h-4.7l0,22.2
	c3.6-0.2,7.1-0.3,10.7-0.5L72.6,58.1L72.6,58.1z M81.3,44.4c0-0.7-0.6-1.3-1.3-1.3h-1.7v14.9H80c0.7,0,1.3-0.6,1.3-1.3V44.4
	L81.3,44.4z M85.1,59.7c0.6-1,0.8-2.1,0.8-3l0-12c0-3.7-2.9-6.4-5.9-6.4h-6.4l-0.1,21.7C77.5,59.8,81.3,59.7,85.1,59.7L85.1,59.7z
	 M23.8,62.9l1.3-9l1.5,8.9h2.7c0.3,0,1.4-0.2,1.7-0.2l3.7-24.4h-4.9l-1.3,8.4l-1.2-8.4h-4.8l-1.2,8.1l-1.2-8.3l-4.9,0l4.1,24.8
	L23.8,62.9L23.8,62.9z M39.5,56.8c0,0.7,0.6,1.3,1.4,1.3c0.8,0,1.4-0.6,1.4-1.3V44c0-0.8-0.6-1.3-1.4-1.3c-0.8,0-1.4,0.6-1.4,1.3
	V56.8L39.5,56.8z M34.7,44.3v12.4c0,2.2,0.9,3.7,1.9,4.6c0.4,0.3,0.8,0.6,1.1,0.8c2.5-0.2,4.9-0.4,7.4-0.6c0.1-0.1,0.2-0.1,0.2-0.2
	c0.5-0.5,1.9-2.2,1.9-4.2l-0.1-12.7c0-3.6-2.8-6.4-6.2-6.4c-2.7,0-4,1.3-5,2.4C35,41.4,34.7,43.1,34.7,44.3L34.7,44.3z M52.9,49.2
	h1.5c0.7,0,1.3-0.6,1.3-1.3V44c0-0.5-0.4-0.9-0.9-0.9h-1.9V49.2L52.9,49.2z M48.2,61.2c1.6-0.1,3.2-0.2,4.7-0.3l0-6.9h1.1l1.6,6.7
	c1.7-0.1,3.4-0.2,5.1-0.3l-2.1-8.2c0.7-0.7,1.8-2.3,1.8-3.8l0-1.7l0-2.8c-0.4-4-2.5-5.8-6.3-5.8h-6L48.2,61.2L48.2,61.2z
	 M118.1,52.7h1l-0.5-3.8L118.1,52.7L118.1,52.7z M112,60c1.6,0.1,3.3,0.1,4.9,0.2l0.5-2.7h2.5l0.5,2.9c1.6,0.1,3.3,0.2,4.9,0.3
	l-3.8-22.3h-5.8L112,60L112,60z M102,43.1h3.7v16.7c1.6,0,3.2,0.1,4.8,0.1l0-16.9h3.7l0-4.7l-12.2,0V43.1L102,43.1z M154.9,48.2
	c1.3,2.1,3.3,3.7,5.4,5.6c0.9,0.8,1.6,2.3,1.1,3.7c-0.4,0.9-1.4,1.3-2.3,0.5c-0.4-0.4-0.7-1.2-0.8-2l-0.2-1.2l-4.5,0.3
	c-0.1,4.2,2.5,7.1,4.7,7.6c0.9,0.2,2.4,0.6,4.6-0.2c1.7-0.6,3.5-2.7,3.7-5.4c0.2-2.9-1.6-5.5-3-6.9c-0.7-0.7-1.2-1.1-1.6-1.5
	c-0.4-0.4-0.8-0.7-1.3-1.1c-0.6-0.6-1.7-2.2-1.7-3c0-0.6,0.1-1.4,0.4-1.8c0.4-0.6,0.8-0.5,1.1-0.4c0.5,0.1,1,0.6,1.1,1.3l0.2,1.3
	l0.1,0.2l4.5-0.8c0-0.4,0-1-0.4-2.3c-0.7-2.3-2.3-3.6-4.5-4c-1.3-0.2-2.5-0.2-3.9,0.3c-1.5,0.6-3.6,2.8-3.5,5.6
	C153.9,45.4,153.9,46.7,154.9,48.2L154.9,48.2z M145.6,54.9l0.3-0.5l3.1,7.9c1.8,0.2,3.6,0.3,5.4,0.5h0.2v-0.3l-5.8-13.9l5-9.9
	l0.2-0.3l-0.1-0.2h-5.1l-3.3,6.5v-6.4h-4.7l-0.1,23.3c1.6,0.1,3.2,0.3,4.8,0.4V54.9L145.6,54.9z M104.3,49.6v-3.3l-7.6,0l0,13.3
	c1.1,0,2.2,0,3.4,0v-3.6h3.1v-3.3H100v-3.1L104.3,49.6L104.3,49.6z M131.1,60.9l0-9.6l3.2,9.9c1.8,0.1,3.7,0.3,5.5,0.4l-0.1-23.3
	l-4.7,0l-0.1,11.9l-3.6-11.8h-4.9l0,22.3C128,60.7,129.6,60.8,131.1,60.9L131.1,60.9z M92.3,40L78.5,26.3V8.9l7.4-7.8h12.9l7.2,7.6
	v17.6L92.3,40L92.3,40z M92.3,42.4L77.3,27V8.3L85.1,0h14.5l7.6,8.1V27L92.3,42.4L92.3,42.4z M98.3,23.2L95.5,26l4.2,4.2l4.6-4.7
	V11.7h-6V23.2L98.3,23.2z M86.3,3.1l-6,6h8.9v25.5l3.1,3.1l3.1-3.1V9.1h8.9l-6-6H86.3L86.3,3.1z M86.3,23.2V11.7h-6v13.8l4.6,4.7
	L89,26L86.3,23.2z"/>
</svg>
