<?xml version="1.0" encoding="UTF-8" standalone="no"?>
<svg width="192px" height="80px" viewBox="0 0 192 80" version="1.1" xmlns="http://www.w3.org/2000/svg" xmlns:xlink="http://www.w3.org/1999/xlink">
    <!-- Generator: Sketch 3.8.3 (29802) - http://www.bohemiancoding.com/sketch -->
    <title>WG_WGShop_Logo_MainVersion_Simplified_IndexColor_Black</title>
    <desc>Created with Sketch.</desc>
    <defs></defs>
    <g id="Page-1" stroke="none" stroke-width="1" fill="none" fill-rule="evenodd">
        <g id="Artboard-1" transform="translate(-142.000000, -87.000000)" fill="#FFFFFF">
            <g id="WG_WGShop_Logo_MainVersion_Simplified_IndexColor_Black" transform="translate(142.000000, 87.000000)">
                <g id="Layer_1">
                    <path d="M61.2085714,0 C61.2085714,0 57.6242857,6.34482759 48.8014286,6.34482759 C39.9785714,6.34482759 36.67,0 36.67,0 L0,10.4827586 L6.89285714,34.7586207 L17.6457143,32.8275862 L19.8514286,79.7241379 L19.8514286,80 L19.8514286,80 L19.8514286,80 L77.7514286,80 L79.9571429,32.8275862 L90.71,34.7586207 L97.6028571,10.4827586 L61.2085714,0 L61.2085714,0 Z M87.6771429,28.9655172 L75.8214286,26.7586207 L74.1671429,62.0689655 C71.6857143,54.8965517 68.3771429,48 66.1714286,44.9655172 C67.8257143,44.6896552 70.0314286,44.6896552 71.41,44.9655172 C68.6528571,41.3793103 63.1385714,35.5862069 59.83,32.8275862 C58.7271429,37.2413793 57.3485714,42.2068966 55.6942857,48.5517241 C59.0028571,46.8965517 61.2085714,46.0689655 61.2085714,46.0689655 C61.4842857,58.2068966 53.7642857,66.2068966 44.9414286,71.4482759 C40.8057143,60.4137931 40.53,48.2758621 47.1471429,36.137931 C47.1471429,36.137931 48.8014286,38.3448276 50.4557143,41.9310345 C51.2828571,38.0689655 54.5914286,28.6896552 56.2457143,25.3793103 C49.6285714,25.9310345 43.2871429,26.7586207 35.8428571,29.2413793 C37.4971429,29.7931034 40.2542857,30.6206897 41.9085714,31.4482759 C31.9828571,37.2413793 26.4685714,46.6206897 23.4357143,57.9310345 L22.3328571,26.7586207 L10.4771429,28.9655172 L5.79,13.7931034 L34.74,5.51724138 C37.2214286,8.82758621 42.7357143,11.0344828 48.8014286,11.0344828 C55.1428571,11.0344828 60.3814286,8.82758621 62.8628571,5.51724138 L91.8128571,13.7931034 L87.6771429,28.9655172 L87.6771429,28.9655172 Z M185.831429,56 L178.662857,56 L178.662857,56 L172.872857,56 L172.872857,79.4482759 L178.662857,79.4482759 L178.662857,75.5862069 L178.662857,73.9310345 L185.831429,73.9310345 C188.864286,73.9310345 191.345714,71.4482759 191.345714,68.4137931 L191.345714,61.2413793 C191.345714,58.4827586 188.864286,56 185.831429,56 L185.831429,56 Z M185.555714,66.7586207 C185.555714,67.862069 185.004286,68.4137931 183.901429,68.4137931 L178.662857,68.4137931 L178.662857,68.137931 L178.662857,61.2413793 L183.901429,61.2413793 C185.004286,61.2413793 185.555714,62.0689655 185.555714,63.1724138 L185.555714,66.7586207 L185.555714,66.7586207 Z M167.91,25.6551724 L167.91,33.3793103 C167.91,37.5172414 169.288571,41.1034483 174.802857,41.1034483 L178.938571,41.1034483 C180.041429,41.1034483 180.868571,41.1034483 181.695714,40.8275862 L181.695714,34.7586207 L175.905714,34.7586207 L175.905714,25.9310345 L191.621429,25.9310345 L191.621429,47.7241379 L191.621429,47.7241379 C189.14,49.3793103 186.382857,50.7586207 181.695714,50.7586207 L173.975714,50.7586207 C164.877143,50.7586207 158.535714,43.862069 158.535714,34.4827586 L158.535714,27.3103448 C158.535714,17.1034483 164.601429,10.2068966 175.078571,10.2068966 L191.897143,10.2068966 L191.897143,19.3103448 L175.63,19.3103448 C170.391429,19.5862069 167.91,22.3448276 167.91,25.6551724 L167.91,25.6551724 Z M140.338571,56 L146.128571,56 L146.128571,79.4482759 L140.338571,79.4482759 L140.338571,70.3448276 L132.894286,70.3448276 L132.894286,79.4482759 L127.104286,79.4482759 L127.104286,56 L132.894286,56 L132.894286,65.1034483 L140.338571,65.1034483 L140.338571,56 L140.338571,56 Z M163.498571,56 L155.227143,56 C152.194286,56 149.712857,58.2068966 149.712857,61.2413793 L149.712857,74.2068966 C149.712857,77.2413793 152.194286,79.7241379 155.227143,79.7241379 L163.498571,79.7241379 C166.531429,79.7241379 169.012857,77.2413793 169.012857,74.2068966 L169.012857,61.2413793 C169.012857,58.2068966 166.531429,56 163.498571,56 L163.498571,56 Z M163.222857,72.5517241 C163.222857,73.6551724 162.671429,74.2068966 161.568571,74.2068966 L157.432857,74.2068966 C156.33,74.2068966 155.778571,73.3793103 155.778571,72.5517241 L155.778571,63.1724138 C155.778571,62.0689655 156.605714,61.2413793 157.432857,61.2413793 L161.568571,61.2413793 C162.671429,61.2413793 163.222857,62.0689655 163.222857,63.1724138 L163.222857,72.5517241 L163.222857,72.5517241 Z M124.071429,71.7241379 L124.071429,72.8275862 C124.071429,76.4137931 121.314286,79.1724138 117.73,79.1724138 L105.874286,79.1724138 L105.874286,73.6551724 L117.178571,73.6551724 C118.005714,73.6551724 118.557143,73.1034483 118.557143,72 L118.557143,71.7241379 C118.557143,71.4482759 118.557143,70.3448276 116.902857,70.0689655 L111.388571,69.5172414 C110.01,69.2413793 108.355714,68.6896552 107.252857,67.5862069 C106.15,66.4827586 105.047143,65.1034483 105.047143,63.1724138 L105.047143,62.0689655 C105.047143,58.4827586 107.804286,55.7241379 111.388571,55.7241379 L123.244286,55.7241379 L123.244286,60.9655172 L111.94,60.9655172 C111.112857,60.9655172 110.561429,61.5172414 110.561429,62.6206897 C110.561429,63.7241379 111.112857,64.2758621 111.94,64.5517241 L111.94,64.5517241 L118.005714,65.1034483 C119.384286,65.3793103 121.038571,65.9310345 122.141429,67.0344828 C122.968571,68.4137931 124.071429,69.7931034 124.071429,71.7241379 L124.071429,71.7241379 Z M157.157143,10.4827586 L146.404286,50.4827586 L136.202857,50.4827586 L130.964286,30.8965517 L125.725714,50.4827586 L115.8,50.4827586 L104.495714,10.4827586 L115.524286,10.4827586 L120.487143,28.9655172 L125.45,10.4827586 L136.478571,10.4827586 L141.441429,28.9655172 L146.128571,10.4827586 L157.157143,10.4827586 L157.157143,10.4827586 Z" id="WG_x5F_WGShop_x5F_Logo_x5F_MainVersion_x5F_Simplified_x5F_IndexColor_x5F_2r_2_"></path>
                </g>
            </g>
        </g>
    </g>
</svg>