<?xml version="1.0" encoding="utf-8"?>
<!-- Generator: Adobe Illustrator 18.0.0, SVG Export Plug-In . SVG Version: 6.00 Build 0)  -->
<!DOCTYPE svg PUBLIC "-//W3C//DTD SVG 1.1//EN" "http://www.w3.org/Graphics/SVG/1.1/DTD/svg11.dtd">
<svg width="165px" height="118px" version="1.1" id="Layer_1" xmlns="http://www.w3.org/2000/svg" xmlns:xlink="http://www.w3.org/1999/xlink" x="0px" y="0px"
	 viewBox="0 0 165 118" enable-background="new 0 0 165 118" xml:space="preserve">
<g>
	<g>
		<g>
			<path fill="#FFFFFF" d="M88.1,27.1L88.1,27.1c-1.1,0.6-2.6,0.4-3.5-0.5c-0.3-0.3-0.5-0.6-0.6-1c3.1-3.7,0.9-4.7,0.9-4.7
				s-0.3-0.3-0.7-0.9c-0.4,0.3-0.9,0.5-1.4,0.5c-1.3,0-2.5-1-2.5-2.4c0-0.7,0.3-1.3,0.7-1.8c-0.4-0.5-0.8-0.9-0.9-1.1
				c0,0,0,0-0.1-0.1C76.1,12.7,72,9.4,67.8,5.1C66,3.3,64.3,1.8,62.8,0c-1.6,0.3-2.7,0.7-4.1,2l0,0c-0.1,0.1-0.2,0.2-0.3,0.3
				c0,0-0.1,0.1-0.1,0.1c0,0,0,0,0,0c0,0,0,0,0,0c0,0-0.1,0.1-0.1,0.1c-0.1,0.1-0.2,0.2-0.3,0.3l0,0C56.4,4.3,56,5.4,55.7,7
				c1.8,1.5,3.8,2.8,5.6,4.6c4.2,4.2,7.8,8.5,10.3,12.4l0.9,0.8c0.4-0.3,0.9-0.6,1.5-0.6c1.3,0,2.5,1,2.5,2.4c0,0.5-0.1,0.9-0.4,1.3
				l0.9,0.8c0,0,1,2.2,4.8-0.9c0.3,0.1,0.7,0.4,0.9,0.6c0.9,1,1.1,2.4,0.4,3.5l0,0l22.6,23l4.9-4.7L88.1,27.1z"/>
			<path fill="#FFFFFF" d="M87.9,25.8c0.6,0.1,1,0.1,1.6,0l3.1-4.1c0,0,2.2-1.6,3.7-1.8c0.3,0,0.5,0,0.7,0c1.3,0.4,4.1,0.9,5.9,0.6
				c1.2-0.2,1.5-0.2,1.6-0.2c0,0,1.3-0.3,2.5-1.3c1.2-1.1,2.3-2.9,1.9-6.2c0-0.3-0.1-0.6-0.1-0.9c-0.2-1.2-0.4-2-0.4-2v0v0
				c0,0,0-0.1,0-0.2c0-0.2-0.1-0.5-0.7-0.5c0,0,0,0,0,0l-3.7,5.3l-3.7,0.2l-4.2-4.4l0.4-3.1l4.7-4.2c0,0,0.1-0.2,0-0.5
				c-0.1-0.4-0.4-0.9-2.1-0.7c-2.8,0.4-3.4,0.5-3.5,0.5c0,0-1.4,0.5-2.7,1.6c-1.3,1.1-2.6,2.8-2.3,5.1c0.1,0.4,0.5,3.6,0.5,3.6
				c0,0,0,2.3-1.9,4.1c-0.5,0.5-2,2.1-2.7,2.7C87.3,20.2,90.3,23.3,87.9,25.8z"/>
			<path fill="#FFFFFF" d="M86.5,19.5C86.5,19.5,86.4,19.5,86.5,19.5C86.7,19.9,86.6,19.7,86.5,19.5z"/>
			<path fill="#FFFFFF" d="M86.5,19.5C86.5,19.5,86.5,19.5,86.5,19.5c-0.1-0.1-0.2-0.2-0.2-0.2S86.4,19.4,86.5,19.5z"/>
			<path fill="#FFFFFF" d="M76.5,31.1c0,0-0.4-0.3-1-0.8l-2.9,2.7l-1.9,1.8c0,0-2.2,1.6-3.7,1.8c-0.3,0-0.5,0-0.7,0
				c-1.3-0.4-4.1-0.9-5.9-0.6c-1.2,0.2-1.5,0.2-1.6,0.2c0,0-1.3,0.3-2.5,1.3c-1.2,1.1-2.3,2.9-1.9,6.2c0,0.3,0.1,0.6,0.1,0.9
				c0.2,1.2,0.4,2,0.4,2v0v0c0,0,0,0.1,0,0.2c0,0.2,0.1,0.5,0.7,0.5c0,0,0,0,0,0l3.7-5.3l3.7-0.2l1.6,1.7c0.2,0.3,0.4,0.7,0.7,1
				c0.2,0.2,0.5,0.4,0.8,0.6l1.1,1.2l-0.4,3.1l-4.7,4.2c0,0-0.1,0.2,0,0.5c0.1,0.4,0.4,0.9,2.1,0.7c2.8-0.4,3.4-0.5,3.5-0.5
				c0,0,1.4-0.5,2.7-1.6c1.3-1.1,2.6-2.8,2.3-5.1c-0.1-0.4-0.5-3.6-0.5-3.6c0,0,0-1.5,1-3l8.2-8.6c0.1-0.6,0.1-1,0-1.6
				C78.5,33.4,76.5,31.1,76.5,31.1z"/>
		</g>
	</g>
	<g>
		<g>
			<path fill="#FFFFFF" d="M12.1,79.4v-0.6c0-1.8-0.3-3.1-0.8-3.8c-0.5-0.7-1.3-1.1-2.5-1.1c-1.2,0-2,0.4-2.5,1.1
				c-0.5,0.7-0.8,2-0.8,3.8v11.4c0,1.9,0.3,3.2,0.8,3.9c0.5,0.7,1.3,1.1,2.5,1.1c1.1,0,1.9-0.4,2.5-1.1c0.5-0.7,0.8-2,0.8-3.9v-1.6
				h5.5v1.2c0,1.3-0.1,2.5-0.4,3.7c-0.3,1.2-0.7,2.2-1.4,3.1c-0.7,0.9-1.6,1.6-2.7,2.1c-1.1,0.5-2.5,0.8-4.2,0.8
				c-1.8,0-3.3-0.3-4.4-0.8c-1.1-0.5-2.1-1.2-2.7-2.1c-0.7-0.9-1.1-1.9-1.4-3.1C0.1,92.4,0,91.1,0,89.9V79.4c0-3.4,0.8-5.9,2.3-7.5
				S6,69.4,9,69.4c2.8,0,5,0.7,6.4,2.2c1.5,1.5,2.2,3.6,2.2,6.2v1.4H12.1z"/>
			<path fill="#FFFFFF" d="M25.5,70v20.3c0,1.6,0.3,2.8,0.9,3.5c0.6,0.8,1.5,1.1,2.8,1.1c1.4,0,2.3-0.4,2.8-1.1
				c0.5-0.7,0.8-1.9,0.8-3.6V70h5.5v21.1c0,2.6-0.7,4.6-2.2,6.1c-1.4,1.5-3.8,2.2-6.9,2.2s-5.5-0.7-7-2.1c-1.5-1.4-2.2-3.5-2.2-6.1
				V70H25.5z"/>
			<path fill="#FFFFFF" d="M52.4,79.1v-0.3c0-1.8-0.3-3-0.9-3.8c-0.6-0.8-1.4-1.1-2.5-1.1c-0.8,0-1.5,0.2-2,0.6
				c-0.6,0.4-0.9,1-0.9,1.8c0,0.9,0.2,1.5,0.5,2c0.3,0.5,0.8,0.9,1.4,1.3l5.6,3.7c0.7,0.5,1.4,1,2,1.5c0.6,0.5,1.1,1.1,1.6,1.7
				c0.4,0.6,0.8,1.3,1,2.1c0.2,0.8,0.3,1.7,0.3,2.8c0,2.6-0.8,4.5-2.3,6s-3.7,2.1-6.6,2.1c-3.1,0-5.4-0.8-6.9-2.5
				c-1.5-1.7-2.3-4-2.3-7v-1.1h5.2V90c0,1,0.1,1.8,0.3,2.5c0.2,0.7,0.5,1.2,0.9,1.6c0.4,0.4,0.8,0.7,1.3,0.8c0.5,0.1,1,0.2,1.5,0.2
				c1,0,1.8-0.3,2.4-0.9c0.6-0.6,0.8-1.4,0.8-2.3c0-0.9-0.2-1.7-0.7-2.4c-0.5-0.6-1.2-1.3-2.3-2l-4.9-3.2c-2.9-1.9-4.3-4.3-4.3-7.4
				c0-1.2,0.2-2.3,0.6-3.2c0.4-0.9,1-1.7,1.8-2.3c0.8-0.6,1.7-1.1,2.7-1.5c1-0.3,2.2-0.5,3.4-0.5c2.7,0,4.9,0.7,6.3,2.2
				c1.5,1.5,2.2,3.6,2.2,6.6v0.9H52.4z"/>
			<path fill="#FFFFFF" d="M71.3,98.8h-5.5V74.4h-6.8V70h19v4.4h-6.8V98.8z"/>
			<path fill="#FFFFFF" d="M79.2,79.3c0-1.8,0.2-3.3,0.7-4.6c0.5-1.3,1.1-2.3,1.9-3.1c0.8-0.8,1.8-1.4,3-1.7
				c1.2-0.3,2.4-0.5,3.8-0.5c1.4,0,2.6,0.2,3.8,0.5c1.1,0.3,2.1,0.9,2.9,1.7c0.8,0.8,1.4,1.8,1.9,3.1c0.4,1.3,0.7,2.8,0.7,4.6v10.5
				c0,1.8-0.2,3.4-0.7,4.6c-0.4,1.2-1.1,2.2-1.9,3c-0.8,0.8-1.8,1.3-2.9,1.6c-1.1,0.3-2.4,0.5-3.8,0.5c-1.4,0-2.6-0.2-3.8-0.5
				c-1.2-0.3-2.1-0.9-3-1.6c-0.8-0.8-1.5-1.8-1.9-3c-0.5-1.2-0.7-2.8-0.7-4.6V79.3z M88.6,73.8c-1.3,0-2.3,0.4-2.9,1.3
				c-0.6,0.8-0.9,2-0.9,3.6v11.8c0,1.5,0.3,2.7,0.9,3.5c0.6,0.8,1.6,1.2,2.9,1.2c1.2,0,2.1-0.4,2.7-1.2c0.6-0.8,0.9-1.9,0.9-3.5
				V78.8c0-1.5-0.3-2.7-0.9-3.6C90.7,74.3,89.8,73.8,88.6,73.8z"/>
			<path fill="#FFFFFF" d="M109,70l3.8,18.7l3.8-18.7h8.7v28.8h-5.1V72.7h0l-5.5,26.1h-3.9l-5.5-26.1h0v26.1h-5.1V70H109z"/>
			<path fill="#FFFFFF" d="M143.4,70v4.4h-9.9v6.7h9.1v4.4h-9.1v8.9h9.9v4.4H128V70H143.4z"/>
			<path fill="#FFFFFF" d="M150.9,98.8h-5.5V70h11.4c1.1,0,2.1,0.2,3,0.6c0.9,0.4,1.7,0.9,2.3,1.6c0.6,0.7,1.1,1.5,1.4,2.4
				c0.3,0.9,0.5,1.9,0.5,2.9c0,2.2-0.4,3.8-1.2,4.9c-0.8,1.1-1.9,1.8-3.1,1.9c0.8,0.2,1.5,0.4,2,0.8c0.5,0.4,0.9,0.8,1.2,1.3
				c0.3,0.5,0.5,1,0.6,1.5c0.1,0.5,0.2,1.1,0.2,1.6v3.7c0,0.7,0,1.3,0,1.9c0,0.6,0.1,1.1,0.2,1.5c0.1,0.4,0.2,0.8,0.4,1
				c0.2,0.3,0.4,0.4,0.7,0.4v0.9h-5.5c-0.5-0.5-0.9-1.1-1.1-2c-0.2-0.9-0.3-1.8-0.3-2.7v-3.3c0-0.6-0.1-1.1-0.2-1.6
				c-0.1-0.5-0.3-1-0.5-1.3c-0.3-0.4-0.6-0.7-1-0.9c-0.4-0.2-0.9-0.3-1.6-0.3h-4V98.8z M150.9,82.5h3.7c0.5,0,1-0.1,1.4-0.2
				c0.5-0.1,0.9-0.4,1.2-0.7c0.4-0.3,0.7-0.8,0.9-1.3c0.2-0.5,0.3-1.2,0.3-2.1c0-1.6-0.4-2.6-1.1-3.2c-0.7-0.5-1.7-0.8-2.9-0.8h-3.6
				V82.5z"/>
		</g>
	</g>
	<g>
		<g>
			<path fill="#FFFFFF" d="M11.5,111.4v-0.1c0-0.6-0.1-1-0.3-1.2c-0.2-0.2-0.5-0.4-0.8-0.4c-0.3,0-0.5,0.1-0.7,0.2
				c-0.2,0.1-0.3,0.3-0.3,0.6c0,0.3,0.1,0.5,0.2,0.6c0.1,0.2,0.3,0.3,0.4,0.4l1.8,1.2c0.2,0.2,0.5,0.3,0.7,0.5
				c0.2,0.2,0.4,0.3,0.5,0.5c0.1,0.2,0.2,0.4,0.3,0.7c0.1,0.3,0.1,0.6,0.1,0.9c0,0.8-0.2,1.5-0.7,1.9c-0.5,0.5-1.2,0.7-2.1,0.7
				c-1,0-1.7-0.3-2.2-0.8c-0.5-0.5-0.8-1.3-0.8-2.3v-0.4h1.7v0.4c0,0.3,0,0.6,0.1,0.8c0.1,0.2,0.2,0.4,0.3,0.5
				c0.1,0.1,0.3,0.2,0.4,0.3c0.2,0,0.3,0.1,0.5,0.1c0.3,0,0.6-0.1,0.8-0.3c0.2-0.2,0.3-0.5,0.3-0.7c0-0.3-0.1-0.6-0.2-0.8
				c-0.2-0.2-0.4-0.4-0.7-0.6l-1.6-1c-0.9-0.6-1.4-1.4-1.4-2.4c0-0.4,0.1-0.7,0.2-1c0.1-0.3,0.3-0.6,0.6-0.8s0.5-0.4,0.9-0.5
				c0.3-0.1,0.7-0.2,1.1-0.2c0.9,0,1.6,0.2,2.1,0.7c0.5,0.5,0.7,1.2,0.7,2.1v0.3H11.5z"/>
			<path fill="#FFFFFF" d="M24.5,108.4v1.4h-3.2v2.2h2.9v1.4h-2.9v2.9h3.2v1.4h-5v-9.4H24.5z"/>
			<path fill="#FFFFFF" d="M32.3,117.8h-1.8v-9.4h3.7c0.4,0,0.7,0.1,1,0.2c0.3,0.1,0.5,0.3,0.7,0.5c0.2,0.2,0.4,0.5,0.5,0.8
				c0.1,0.3,0.2,0.6,0.2,0.9c0,0.7-0.1,1.2-0.4,1.6c-0.3,0.4-0.6,0.6-1,0.6c0.3,0.1,0.5,0.1,0.6,0.3c0.2,0.1,0.3,0.3,0.4,0.4
				c0.1,0.2,0.2,0.3,0.2,0.5c0,0.2,0.1,0.3,0.1,0.5v1.2c0,0.2,0,0.4,0,0.6c0,0.2,0,0.4,0.1,0.5c0,0.1,0.1,0.3,0.1,0.3
				c0.1,0.1,0.1,0.1,0.2,0.1v0.3h-1.8c-0.2-0.1-0.3-0.4-0.3-0.6c-0.1-0.3-0.1-0.6-0.1-0.9v-1.1c0-0.2,0-0.4-0.1-0.5
				c0-0.2-0.1-0.3-0.2-0.4c-0.1-0.1-0.2-0.2-0.3-0.3c-0.1-0.1-0.3-0.1-0.5-0.1h-1.3V117.8z M32.3,112.5h1.2c0.2,0,0.3,0,0.5-0.1
				c0.2,0,0.3-0.1,0.4-0.2c0.1-0.1,0.2-0.2,0.3-0.4s0.1-0.4,0.1-0.7c0-0.5-0.1-0.9-0.3-1s-0.5-0.3-0.9-0.3h-1.2V112.5z"/>
			<path fill="#FFFFFF" d="M44.1,108.4l1.4,7.8h0l1.3-7.8h1.8l-1.8,9.4h-2.6l-2-9.4H44.1z"/>
			<path fill="#FFFFFF" d="M56.2,117.8h-1.8v-9.4h1.8V117.8z"/>
			<path fill="#FFFFFF" d="M66.3,111.5v-0.2c0-0.6-0.1-1-0.2-1.2c-0.2-0.2-0.4-0.4-0.8-0.4c-0.4,0-0.7,0.1-0.8,0.4
				c-0.2,0.2-0.3,0.6-0.3,1.2v3.7c0,0.6,0.1,1,0.2,1.3c0.2,0.2,0.4,0.4,0.8,0.4c0.4,0,0.6-0.1,0.8-0.4c0.2-0.2,0.3-0.7,0.3-1.3v-0.5
				h1.8v0.4c0,0.4,0,0.8-0.1,1.2c-0.1,0.4-0.2,0.7-0.5,1c-0.2,0.3-0.5,0.5-0.9,0.7c-0.4,0.2-0.8,0.3-1.4,0.3c-0.6,0-1.1-0.1-1.4-0.3
				c-0.4-0.2-0.7-0.4-0.9-0.7c-0.2-0.3-0.4-0.6-0.4-1c-0.1-0.4-0.1-0.8-0.1-1.2v-3.4c0-1.1,0.2-1.9,0.7-2.4c0.5-0.5,1.2-0.8,2.2-0.8
				c0.9,0,1.6,0.2,2.1,0.7c0.5,0.5,0.7,1.2,0.7,2v0.5H66.3z"/>
			<path fill="#FFFFFF" d="M79.3,108.4v1.4H76v2.2H79v1.4H76v2.9h3.2v1.4h-5v-9.4H79.3z"/>
			<path fill="#FFFFFF" d="M97.2,111.5v-0.2c0-0.6-0.1-1-0.2-1.2c-0.2-0.2-0.4-0.4-0.8-0.4c-0.4,0-0.7,0.1-0.8,0.4
				c-0.2,0.2-0.3,0.6-0.3,1.2v3.7c0,0.6,0.1,1,0.2,1.3c0.2,0.2,0.4,0.4,0.8,0.4c0.4,0,0.6-0.1,0.8-0.4c0.2-0.2,0.3-0.7,0.3-1.3v-0.5
				H99v0.4c0,0.4,0,0.8-0.1,1.2c-0.1,0.4-0.2,0.7-0.5,1c-0.2,0.3-0.5,0.5-0.9,0.7c-0.4,0.2-0.8,0.3-1.4,0.3c-0.6,0-1.1-0.1-1.4-0.3
				c-0.4-0.2-0.7-0.4-0.9-0.7c-0.2-0.3-0.4-0.6-0.4-1c-0.1-0.4-0.1-0.8-0.1-1.2v-3.4c0-1.1,0.2-1.9,0.7-2.4c0.5-0.5,1.2-0.8,2.2-0.8
				c0.9,0,1.6,0.2,2.1,0.7c0.5,0.5,0.7,1.2,0.7,2v0.5H97.2z"/>
			<path fill="#FFFFFF" d="M110.2,108.4v1.4H107v2.2h2.9v1.4H107v2.9h3.2v1.4h-5v-9.4H110.2z"/>
			<path fill="#FFFFFF" d="M118.2,108.4l2.6,6.8h0c-0.1-0.3-0.1-0.5-0.1-0.8c0-0.3,0-0.6-0.1-0.9c0-0.3,0-0.6,0-0.9
				c0-0.3,0-0.6,0-0.9v-3.3h1.7v9.4h-1.9l-2.6-6.8h0c0.1,0.2,0.1,0.5,0.1,0.8c0,0.3,0,0.6,0.1,0.9c0,0.3,0,0.6,0,0.9
				c0,0.3,0,0.6,0,0.8v3.3h-1.7v-9.4H118.2z"/>
			<path fill="#FFFFFF" d="M132,117.8h-1.8v-7.9H128v-1.4h6.2v1.4H132V117.8z"/>
			<path fill="#FFFFFF" d="M145,108.4v1.4h-3.2v2.2h2.9v1.4h-2.9v2.9h3.2v1.4h-5v-9.4H145z"/>
			<path fill="#FFFFFF" d="M152.9,117.8h-1.8v-9.4h3.7c0.4,0,0.7,0.1,1,0.2c0.3,0.1,0.5,0.3,0.7,0.5c0.2,0.2,0.4,0.5,0.5,0.8
				c0.1,0.3,0.2,0.6,0.2,0.9c0,0.7-0.1,1.2-0.4,1.6c-0.3,0.4-0.6,0.6-1,0.6c0.3,0.1,0.5,0.1,0.6,0.3c0.2,0.1,0.3,0.3,0.4,0.4
				c0.1,0.2,0.2,0.3,0.2,0.5c0,0.2,0.1,0.3,0.1,0.5v1.2c0,0.2,0,0.4,0,0.6c0,0.2,0,0.4,0.1,0.5c0,0.1,0.1,0.3,0.1,0.3
				c0.1,0.1,0.1,0.1,0.2,0.1v0.3h-1.8c-0.2-0.1-0.3-0.4-0.3-0.6c-0.1-0.3-0.1-0.6-0.1-0.9v-1.1c0-0.2,0-0.4-0.1-0.5
				c0-0.2-0.1-0.3-0.2-0.4c-0.1-0.1-0.2-0.2-0.3-0.3c-0.1-0.1-0.3-0.1-0.5-0.1h-1.3V117.8z M152.9,112.5h1.2c0.2,0,0.3,0,0.5-0.1
				c0.2,0,0.3-0.1,0.4-0.2c0.1-0.1,0.2-0.2,0.3-0.4s0.1-0.4,0.1-0.7c0-0.5-0.1-0.9-0.3-1c-0.2-0.2-0.5-0.3-0.9-0.3h-1.2V112.5z"/>
		</g>
	</g>
</g>
</svg>
