<?xml version="1.0" encoding="utf-8"?>
<!-- Generator: Adobe Illustrator 19.2.0, SVG Export Plug-In . SVG Version: 6.00 Build 0)  -->
<svg width="168px" height="90px" version="1.1" id="Layer_1" xmlns="http://www.w3.org/2000/svg" xmlns:xlink="http://www.w3.org/1999/xlink" x="0px" y="0px"
	 viewBox="0 0 168 90" style="enable-background:new 0 0 168 90;" xml:space="preserve">
<style type="text/css">
	.st0{fill:#FFFFFF;}
</style>
<path class="st0" d="M49.1,9.7l-3.8-4.2l5-5.5h7.6L49.1,9.7z M125.7,16.5V0h7.7v16.5H125.7z M111.4,16.5l-2-4.5h-6.8V8.2h7.3
	c0.7,0,1.2-0.6,1.2-1.2V5c0-0.7-0.6-1.2-1.2-1.2h-7.2V0h11.8c2.4,0,4.4,1.9,4.4,4.2v3.5c0,1.5-0.8,2.8-1.9,3.6l2.3,5.2H111.4z
	 M93.1,16.5V0h7.6v16.5H93.1z M69.9,16.5V13h7.2c0.7,0,1.2-0.6,1.2-1.2V11c0-0.7-0.6-1.2-1.2-1.2h-7.2V6.6l7,0
	c0.7,0,1.2-0.5,1.2-1.2V4.8c0-0.7-0.6-1.2-1.2-1.2h-7V0h11.7c2.3,0,4.1,1.8,4.1,4.1v1.4c0,1-0.6,1.9-1.4,2.4c1,0.5,1.7,1.5,1.7,2.7
	v1.9c0,2.3-1.8,4.1-4.1,4.1H69.9z M60.4,16.5V0H68v16.5H60.4z M40.2,16.5v-5.4L30,0h7.6l10.1,11.1v5.4H40.2z M20,16.5v-6.4h-8.5V6.4
	H20V0h7.6v16.5H20z M1.9,16.5V0h7.7v16.5H1.9z M140.4,16.5V0h7.7v16.5H140.4z M149.9,16.5v-3.8h7.3c0.7,0,1.2-0.6,1.2-1.2V5
	c0-0.7-0.6-1.2-1.2-1.2h-7.2V3.7V0.1V0h11.8c2.4,0,4.3,1.9,4.3,4.3v7.9c0,2.4-1.9,4.3-4.3,4.3H149.9z M45.2,65.9l-3.8-8.7L49,39.8
	l3.8,8.7l10.7-24.4h15.3L60.5,65.9H45.2z M18.4,65.9L0,24.1h15.3L26,48.5l10.8-24.4h15.3L33.7,65.9H18.4z M87.3,65.9L85,60.7H66.6
	l4.6-10.4h9.2l-4.6-10.4l6.9-15.7h1.5l18.4,41.8H87.3z M110.2,65.9l-5.9-13.3h-3.8l-4.8-10.8h17.9c1.9,0,3.5-1.5,3.5-3.4
	c0-1.9-1.5-3.4-3.5-3.4H92.7L88,24.1h28.6c7.9,0,14.4,6.4,14.4,14.2c0,6.9-4.9,12.6-11.4,13.9l6,13.7H110.2z M129.3,65.9l-4.6-10.4
	h26.5c1.6,0,3-1.3,3-2.9c0-1.6-1.3-2.9-3-2.9h-13.2c-2.4,0-4.6-0.6-6.5-1.7c1.8-2.8,2.8-6,2.8-9.6c0-4.4-1.6-8.4-4.3-11.5
	c2.2-1.7,5-2.7,8-2.7h28v10.4h-24.1c-1.6,0-3,1.3-3,2.9c0,1.6,1.3,2.9,3,2.9h13.2c7.1,0,12.9,5.7,12.9,12.8s-5.8,12.8-12.9,12.8
	H129.3z M133.8,82.3l0.1-0.5c0.3-1,0.5-1.7,0.7-2.2v0l0,0.1c0.1,0.2,0.3,0.9,0.7,2.2l0.1,0.4H133.8z M25,82.3l0.1-0.5
	c0.3-1,0.5-1.7,0.7-2.2l0,0l0,0.1c0.1,0.2,0.3,0.9,0.7,2.2l0.1,0.4H25z M158.4,85.6v-1.6h-3.2v-1.7h3v-1.5h-3v-1.4h3.2v-1.5h-5v7.7
	H158.4z M132.7,85.6l0.6-1.8h2.6l0.6,1.8h2l-2.8-7.8h-2.1l-2.8,7.8H132.7z M110.7,85.6V82c0-0.3,0-0.8-0.1-1.5l0-0.3l3.1,5.4h2.2
	v-7.7h-1.7v3.7c0,0.3,0,0.8,0,1.4l0,0.2l-3.1-5.3H109v7.7H110.7z M103.8,85.6v-1.6h-3.2v-1.7h3v-1.5h-3v-1.4h3.2v-1.5h-5v7.7H103.8z
	 M79.3,85.6v-1.6h-3.2v-1.7h3v-1.5h-3v-1.4h3.2v-1.5h-5v7.7H79.3z M63.9,85.6V82c0-0.3,0-0.8-0.1-1.5l0-0.3l3.1,5.4h2.2v-7.7h-1.7
	v3.7c0,0.3,0,0.8,0,1.4l0,0.2l-3.1-5.3h-2.2v7.7H63.9z M57.1,85.6v-7.7h-1.8v7.7H57.1z M45.6,85.6v-3.2h2.8v3.2h1.8v-7.7h-1.8v2.9
	h-2.8v-2.9h-1.8v7.7H45.6z M24,85.6l0.6-1.8h2.6l0.6,1.8h2l-2.8-7.8h-2.1L22,85.6H24z M11.3,85.6V82c0-0.3,0-0.8-0.1-1.6v0l1.6,5.2
	h1.7l1.8-5.3v0.2c0,0.4,0,0.7,0,0.8c0,0.2,0,0.4,0,0.6v3.7h1.7v-7.7h-2.4l-1.8,5.5L12,77.9H9.6v7.7H11.3z M146.9,85.6
	c0.4-0.1,0.9-0.2,1.4-0.3l0.1,0v-4.1h-2.8v1.6h1v1.3l-0.4,0.1c-0.2,0-0.3,0-0.5,0c-0.6,0-1.1-0.2-1.4-0.6c-0.3-0.4-0.5-1-0.5-1.8
	c0-0.8,0.2-1.3,0.6-1.8c0.4-0.4,0.9-0.7,1.6-0.7c0.6,0,1.1,0.1,1.7,0.4l0.1,0.1l0.6-1.5l-0.1,0c-0.7-0.3-1.5-0.5-2.3-0.5
	c-1.3,0-2.3,0.4-3,1.1c-0.7,0.7-1.1,1.7-1.1,2.9c0,1.3,0.3,2.3,0.9,2.9c0.6,0.7,1.5,1,2.7,1C146,85.7,146.5,85.7,146.9,85.6z
	 M125.3,85.6c0.4-0.1,0.9-0.2,1.4-0.3l0.1,0v-4.1h-2.8v1.6h1v1.3l-0.4,0.1c-0.2,0-0.3,0-0.5,0c-0.6,0-1.1-0.2-1.4-0.6
	c-0.3-0.4-0.5-1-0.5-1.8c0-0.8,0.2-1.3,0.6-1.8c0.4-0.4,0.9-0.7,1.6-0.7c0.6,0,1.1,0.1,1.7,0.4l0.1,0.1l0.6-1.5l-0.1,0
	c-0.7-0.3-1.5-0.5-2.3-0.5c-1.3,0-2.3,0.4-3,1.1c-0.7,0.7-1.1,1.7-1.1,2.9c0,1.3,0.3,2.3,0.9,2.9c0.6,0.7,1.5,1,2.7,1
	C124.4,85.7,124.8,85.7,125.3,85.6z M88,85.1c0.5-0.4,0.8-1,0.8-1.7c0-0.5-0.1-0.9-0.4-1.3c-0.3-0.4-0.8-0.7-1.5-1
	c-0.5-0.3-0.9-0.4-1-0.5c-0.1-0.1-0.2-0.2-0.3-0.3c-0.1-0.1-0.1-0.2-0.1-0.3c0-0.2,0.1-0.4,0.2-0.5c0.1-0.1,0.3-0.2,0.6-0.2
	c0.2,0,0.5,0,0.7,0.1c0.3,0.1,0.6,0.2,1,0.3l0.1,0l0.6-1.5l-0.1,0c-0.4-0.2-0.8-0.3-1.1-0.4c-0.4-0.1-0.7-0.1-1.2-0.1
	c-0.8,0-1.5,0.2-2,0.6c-0.5,0.4-0.7,1-0.7,1.7c0,0.4,0.1,0.7,0.2,1c0.1,0.3,0.3,0.5,0.6,0.7c0.2,0.2,0.6,0.4,1.1,0.6
	c0.5,0.2,0.8,0.4,1,0.5c0.1,0.1,0.3,0.2,0.3,0.3c0.1,0.1,0.1,0.2,0.1,0.3c0,0.2-0.1,0.4-0.2,0.5c-0.2,0.1-0.4,0.2-0.7,0.2
	c-0.3,0-0.6,0-1-0.1c-0.3-0.1-0.8-0.2-1.3-0.5l-0.2-0.1v1.7l0.1,0c0.6,0.3,1.4,0.5,2.2,0.5C86.7,85.7,87.4,85.5,88,85.1z M38.9,85.3
	L38.9,85.3l0.1-1.6l-0.2,0.1c-0.8,0.3-1.4,0.4-1.9,0.4c-1.2,0-1.8-0.8-1.8-2.4c0-0.8,0.2-1.4,0.5-1.8c0.3-0.4,0.7-0.6,1.3-0.6
	c0.3,0,0.5,0,0.8,0.1c0.3,0.1,0.6,0.2,0.8,0.3l0.1,0.1l0.6-1.5l-0.1,0c-0.8-0.4-1.5-0.5-2.3-0.5c-0.7,0-1.4,0.2-2,0.5
	c-0.6,0.3-1,0.8-1.3,1.4c-0.3,0.6-0.4,1.3-0.4,2.1c0,1.3,0.3,2.2,0.9,2.9c0.6,0.7,1.5,1,2.6,1C37.5,85.7,38.2,85.6,38.9,85.3z
	 M1.9,90V73.5h164.1V90H1.9z"/>
</svg>
