<?xml version="1.0" encoding="utf-8"?>
<!-- Generator: Adobe Illustrator 18.0.0, SVG Export Plug-In . SVG Version: 6.00 Build 0)  -->
<!DOCTYPE svg PUBLIC "-//W3C//DTD SVG 1.1//EN" "http://www.w3.org/Graphics/SVG/1.1/DTD/svg11.dtd">
<svg width="16px" height="15px" version="1.1" id="Layer_1" xmlns="http://www.w3.org/2000/svg" xmlns:xlink="http://www.w3.org/1999/xlink" x="0px" y="0px"
	 viewBox="0 0 16 15" enable-background="new 0 0 16 15" xml:space="preserve">
<path fill="#FFFFFF" d="M0.7,0C0.5,0,0.3,0.2,0.3,0.4v1.9c0,0.2,0.2,0.4,0.4,0.4s0.4-0.2,0.4-0.4V0.4C1.2,0.2,1,0,0.7,0z M1.6,12.4
	L7.9,15l6.5-2.6V0.4H1.6V12.4z M2.5,1.3h11v10.1c0,0-0.9,0.4-1.9,0.8c0.2-0.5,0.1-1,0.2-1.4c0-1-0.4-2.6-0.4-2.6l1.1,0.4l-1.7-3
	l-1.7,3l1.1-0.4c0,0-0.1,1.5-1.5,2.6c-1.3,1.1-2.1,1.2-2.3,1.1c-0.1-0.1-1.3-1.9-0.8-4.1C6.3,5.6,8,4.5,7.9,4.5L8,5.6
	c0,0,1.9-3,1.9-3c-0.1,0-3.7,0.4-3.7,0.4l1.2,0.8c0,0-1.8,0.4-3,1.5c-1,0.8-1.6,2-1.9,3.1L2.5,1.3z M15.3,0c-0.3,0-0.4,0.2-0.4,0.4
	v1.9c0,0.2,0.2,0.4,0.4,0.4c0.3,0,0.4-0.2,0.4-0.4V0.4C15.7,0.2,15.5,0,15.3,0z"/>
</svg>
